# xmcd CD database file
#
# Track frame offsets:
#	150
#	4782
#	27280
#	50887
#	79782
#
# Disc length: 1462 seconds
#
# Revision: 0
# Processed by: cddbd v1.5PL3 Copyright (c) Steve Scherf et al.
# Submitted via: CDex 1.50beta9
#
DISCID=3605b405
DTITLE=明和電機 - 道
DYEAR=1998
DGENRE=
TTITLE0=会長・かく語りき
TTITLE1=白い花咲く丘
TTITLE2=カナリヤ
TTITLE3=風のピタゴラス
TTITLE4=ムーンライトな夜へ
EXTD=YEAR: 1998
EXTT0=
EXTT1=
EXTT2=
EXTT3=
EXTT4=
PLAYORDER=
